<svg id="svg" version="1.1" width="400" height="400" xmlns="http://www.w3.org/2000/svg" xmlns:xlink="http://www.w3.org/1999/xlink" style="display: block;"><g id="svgg"><path id="path0" d="M205.294 28.951 C 205.501 28.991,205.801 28.990,205.960 28.948 C 206.120 28.906,205.950 28.874,205.583 28.875 C 205.217 28.877,205.086 28.911,205.294 28.951 M280.333 60.885 C 280.333 60.914,280.577 61.158,280.875 61.427 L 281.417 61.917 280.927 61.375 C 280.471 60.870,280.333 60.757,280.333 60.885 M87.045 132.500 C 87.045 132.912,87.078 133.081,87.118 132.875 C 87.157 132.669,87.157 132.331,87.118 132.125 C 87.078 131.919,87.045 132.087,87.045 132.500 M312.908 141.667 C 312.908 144.646,312.930 145.865,312.958 144.375 C 312.986 142.885,312.986 140.448,312.958 138.958 C 312.930 137.469,312.908 138.688,312.908 141.667 M86.968 150.145 C 86.929 150.409,86.953 150.765,87.020 150.937 C 87.101 151.143,87.147 150.980,87.155 150.458 C 87.168 149.573,87.074 149.417,86.968 150.145 M199.292 313.618 C 199.498 313.657,199.835 313.657,200.042 313.618 C 200.248 313.578,200.079 313.545,199.667 313.545 C 199.254 313.545,199.085 313.578,199.292 313.618 " stroke="none" fill="#555555" fill-rule="evenodd"></path><path id="path1" d="M191.667 29.073 C 183.833 29.582,176.073 30.776,169.917 32.421 C 169.000 32.666,167.950 32.937,167.583 33.023 C 167.217 33.109,166.617 33.284,166.250 33.412 C 165.883 33.540,164.908 33.845,164.083 34.091 C 161.231 34.939,155.430 37.091,153.000 38.201 C 152.404 38.474,151.317 38.969,150.583 39.303 C 148.903 40.067,144.760 42.177,143.333 42.996 C 142.737 43.338,141.837 43.845,141.333 44.122 C 140.328 44.674,136.634 46.979,135.581 47.711 C 135.215 47.965,134.174 48.694,133.267 49.331 C 132.360 49.968,131.542 50.443,131.450 50.386 C 131.357 50.329,131.331 50.362,131.392 50.460 C 131.455 50.561,130.872 51.111,130.043 51.733 C 129.240 52.334,128.103 53.200,127.515 53.657 C 126.928 54.114,126.373 54.441,126.281 54.384 C 126.190 54.328,126.163 54.359,126.222 54.454 C 126.329 54.629,125.803 55.152,123.412 57.248 C 120.957 59.401,117.483 62.894,114.707 66.000 C 113.191 67.696,111.882 69.063,111.797 69.038 C 111.712 69.012,111.690 69.069,111.748 69.163 C 111.869 69.359,110.693 70.869,110.509 70.756 C 110.443 70.715,110.389 70.777,110.389 70.894 C 110.389 71.011,109.695 72.026,108.847 73.149 C 107.417 75.042,103.972 80.091,103.516 80.963 C 103.405 81.173,103.235 81.292,103.133 81.229 C 103.020 81.159,102.996 81.192,103.071 81.314 C 103.140 81.424,102.976 81.859,102.702 82.298 C 101.295 84.545,97.680 91.418,97.007 93.123 C 96.890 93.420,96.729 93.622,96.649 93.573 C 96.569 93.523,96.545 93.589,96.595 93.719 C 96.645 93.850,96.547 94.210,96.378 94.520 C 96.209 94.830,95.780 95.811,95.424 96.701 C 95.069 97.591,94.717 98.281,94.641 98.234 C 94.566 98.188,94.543 98.252,94.591 98.378 C 94.640 98.503,94.407 99.313,94.075 100.178 C 92.896 103.249,90.919 109.475,90.493 111.460 C 90.390 111.942,90.237 112.294,90.155 112.242 C 90.072 112.191,90.043 112.250,90.090 112.374 C 90.137 112.497,89.878 113.945,89.514 115.591 C 85.319 134.544,86.218 158.768,91.765 176.223 C 91.993 176.941,92.140 177.691,92.092 177.889 C 92.043 178.088,92.052 178.139,92.111 178.004 C 92.176 177.858,92.504 178.601,92.921 179.837 C 93.307 180.981,93.900 182.629,94.239 183.500 C 94.578 184.371,94.992 185.458,95.158 185.917 C 95.325 186.375,95.719 187.313,96.034 188.000 C 96.348 188.688,96.787 189.662,97.009 190.167 C 97.505 191.296,100.386 196.991,100.948 197.953 C 101.174 198.340,101.304 198.746,101.237 198.854 C 101.168 198.966,101.186 199.008,101.280 198.950 C 101.370 198.894,101.873 199.576,102.397 200.466 C 104.944 204.793,107.752 208.847,110.537 212.220 C 110.978 212.754,111.288 213.271,111.227 213.371 C 111.165 213.472,111.192 213.504,111.289 213.444 C 111.384 213.385,111.752 213.692,112.106 214.126 C 112.460 214.561,113.596 215.913,114.631 217.131 C 115.695 218.385,116.461 219.427,116.397 219.533 C 116.331 219.638,116.357 219.672,116.455 219.611 C 116.691 219.465,117.059 219.936,116.905 220.185 C 116.834 220.301,116.852 220.341,116.949 220.282 C 117.141 220.163,117.612 220.632,118.863 222.186 C 119.351 222.793,121.063 224.849,122.667 226.754 C 124.271 228.659,126.371 231.169,127.333 232.331 C 128.296 233.493,129.833 235.330,130.750 236.415 C 131.667 237.499,132.829 238.891,133.333 239.507 C 133.837 240.124,135.563 242.185,137.167 244.088 C 138.771 245.990,140.346 247.869,140.667 248.262 C 142.723 250.782,143.454 251.653,143.963 252.193 C 144.321 252.573,144.490 252.882,144.410 253.011 C 144.332 253.137,144.350 253.176,144.456 253.111 C 144.551 253.052,144.904 253.338,145.239 253.748 C 145.574 254.157,145.940 254.587,146.050 254.704 C 146.340 255.009,152.003 261.768,152.500 262.402 C 153.085 263.148,157.878 268.899,157.999 269.000 C 158.567 269.475,161.485 273.224,161.397 273.365 C 161.332 273.470,161.357 273.505,161.452 273.446 C 161.677 273.307,164.872 277.136,164.727 277.371 C 164.665 277.472,164.692 277.504,164.789 277.444 C 164.945 277.347,165.880 278.326,167.000 279.761 C 167.229 280.054,168.167 281.177,169.083 282.255 C 170.000 283.334,171.162 284.720,171.667 285.336 C 172.171 285.951,172.978 286.920,173.461 287.489 C 173.944 288.058,174.288 288.605,174.227 288.704 C 174.163 288.808,174.192 288.837,174.296 288.773 C 174.515 288.638,175.028 289.319,174.884 289.553 C 174.828 289.644,174.864 289.668,174.964 289.606 C 175.143 289.495,176.508 291.048,180.292 295.666 C 180.682 296.142,180.951 296.610,180.891 296.708 C 180.831 296.805,180.857 296.838,180.949 296.781 C 181.141 296.663,181.020 296.530,184.472 300.652 C 185.908 302.366,188.189 305.087,189.541 306.698 C 192.354 310.051,193.628 311.301,195.213 312.264 C 195.829 312.638,196.279 312.998,196.213 313.064 C 196.147 313.130,196.215 313.138,196.363 313.081 C 196.512 313.024,197.029 313.095,197.514 313.239 C 200.000 313.977,203.590 313.226,205.728 311.519 C 206.083 311.236,206.458 311.053,206.562 311.112 C 206.665 311.172,206.695 311.160,206.629 311.086 C 206.503 310.947,206.940 310.393,208.405 308.833 C 208.878 308.329,209.637 307.460,210.091 306.902 C 210.545 306.343,212.229 304.318,213.833 302.402 C 215.438 300.485,217.030 298.579,217.372 298.167 C 218.934 296.284,220.349 294.596,221.500 293.247 C 222.188 292.440,223.350 291.054,224.083 290.167 C 224.817 289.279,226.167 287.663,227.083 286.574 C 228.000 285.485,228.938 284.357,229.167 284.067 C 229.396 283.777,230.183 282.818,230.917 281.936 C 231.650 281.054,232.586 279.901,232.996 279.374 C 234.209 277.818,239.837 271.061,263.086 243.250 C 292.743 207.772,292.399 208.190,293.930 205.916 C 297.184 201.084,301.381 193.544,303.066 189.500 C 303.365 188.783,303.778 187.828,304.257 186.750 C 304.676 185.808,305.291 184.250,305.492 183.623 C 305.611 183.252,305.766 183.042,305.873 183.108 C 305.980 183.174,306.003 183.140,305.930 183.022 C 305.740 182.714,306.335 181.075,306.536 181.356 C 306.658 181.526,306.673 181.506,306.597 181.274 C 306.542 181.102,306.829 179.948,307.240 178.690 C 307.650 177.440,308.140 175.854,308.331 175.167 C 308.521 174.479,308.820 173.429,308.994 172.833 C 309.168 172.237,309.399 171.356,309.505 170.875 C 309.612 170.394,309.760 170.038,309.834 170.084 C 309.908 170.130,309.933 170.031,309.890 169.866 C 309.847 169.700,309.923 169.081,310.060 168.490 C 310.878 164.958,311.709 160.209,312.070 157.000 C 312.694 151.452,312.749 150.201,312.748 141.583 C 312.746 133.014,312.693 131.802,312.077 126.167 C 311.541 121.262,310.048 113.994,308.447 108.500 C 307.127 103.969,306.974 103.515,305.187 98.833 C 303.196 93.617,299.613 86.368,296.784 81.833 C 295.764 80.199,295.000 78.996,294.471 78.196 C 294.209 77.800,294.045 77.395,294.107 77.296 C 294.169 77.195,294.141 77.163,294.044 77.223 C 293.819 77.362,293.283 76.550,293.435 76.303 C 293.499 76.200,293.481 76.159,293.394 76.212 C 293.307 76.266,292.827 75.743,292.327 75.050 C 288.783 70.145,285.083 65.790,280.786 61.466 C 279.443 60.115,278.536 59.077,278.603 58.968 C 278.668 58.863,278.643 58.828,278.546 58.888 C 278.352 59.008,277.659 58.492,276.321 57.230 C 269.432 50.735,257.180 42.669,248.877 39.163 C 248.380 38.953,248.050 38.720,248.111 38.621 C 248.170 38.526,248.139 38.498,248.041 38.558 C 247.944 38.618,247.239 38.398,246.474 38.070 C 245.709 37.741,244.296 37.175,243.333 36.811 C 242.371 36.448,241.358 36.048,241.083 35.923 C 240.585 35.697,236.136 34.215,233.917 33.536 C 222.061 29.909,205.585 28.168,191.667 29.073 M203.833 43.173 C 233.459 44.408,260.072 56.929,277.326 77.750 C 293.746 97.565,301.059 118.013,301.078 144.167 C 301.085 154.666,300.690 158.843,298.846 167.704 C 295.870 182.013,288.645 197.288,279.748 208.083 C 279.144 208.817,278.372 209.754,278.032 210.167 C 277.693 210.579,276.478 212.035,275.333 213.401 C 273.144 216.013,272.291 217.033,271.125 218.435 C 270.735 218.903,268.167 221.968,265.417 225.247 C 262.667 228.526,260.192 231.491,259.917 231.835 C 259.642 232.179,257.729 234.468,255.667 236.921 C 253.604 239.374,251.654 241.701,251.333 242.092 C 250.006 243.710,248.215 245.854,244.667 250.074 C 242.604 252.527,240.692 254.817,240.417 255.163 C 240.142 255.509,237.667 258.472,234.917 261.746 C 232.167 265.021,229.692 267.983,229.417 268.329 C 229.142 268.675,228.354 269.614,227.667 270.417 C 226.979 271.219,226.192 272.157,225.917 272.500 C 225.642 272.844,224.104 274.682,222.500 276.585 C 220.896 278.489,219.321 280.370,219.000 280.765 C 218.180 281.776,214.883 285.729,214.083 286.660 C 213.717 287.087,212.142 288.969,210.583 290.843 C 204.700 297.918,203.573 298.733,199.667 298.744 L 197.583 298.750 196.156 298.039 C 194.601 297.266,193.251 296.158,191.931 294.574 C 191.465 294.015,189.924 292.176,188.506 290.487 C 185.088 286.415,182.522 283.342,181.363 281.932 C 180.843 281.299,180.079 280.393,179.667 279.917 C 179.254 279.442,178.617 278.688,178.250 278.242 C 177.598 277.448,173.343 272.359,164.269 261.518 C 161.783 258.549,159.563 255.887,159.333 255.602 C 159.104 255.317,158.288 254.333,157.519 253.417 C 154.741 250.104,148.734 242.932,148.041 242.100 C 147.652 241.633,147.014 240.868,146.625 240.400 C 145.620 239.194,138.735 230.980,137.558 229.583 C 137.018 228.942,136.202 227.960,135.746 227.402 C 135.290 226.844,133.229 224.379,131.167 221.924 C 129.104 219.469,127.192 217.178,126.917 216.834 C 126.642 216.490,124.762 214.230,122.739 211.812 C 117.632 205.710,115.656 203.095,113.495 199.583 C 102.204 181.235,97.425 162.306,98.313 139.452 C 98.757 128.013,99.965 121.384,103.754 109.583 C 108.479 94.869,120.285 77.458,132.406 67.328 C 140.925 60.208,148.170 55.645,157.388 51.593 C 170.046 46.029,182.238 43.514,198.917 43.027 C 199.375 43.013,201.588 43.079,203.833 43.173 M194.167 59.025 C 193.387 59.105,191.573 59.282,190.135 59.418 C 181.626 60.224,169.406 63.516,163.500 66.594 C 162.524 67.102,162.550 67.100,165.227 66.426 C 177.772 63.266,190.722 63.688,202.083 67.626 C 228.255 76.698,243.426 99.619,246.951 135.417 C 247.316 139.131,247.375 150.812,247.043 153.750 C 246.929 154.758,246.754 156.558,246.656 157.750 C 245.752 168.658,241.519 180.174,234.631 190.465 C 220.748 211.209,199.033 223.503,171.296 226.325 C 167.780 226.683,167.577 226.672,167.443 226.113 C 166.072 220.398,166.912 209.385,169.331 201.350 C 174.612 183.806,189.736 162.292,207.833 146.581 C 210.372 144.377,210.456 144.225,208.564 145.253 C 185.999 157.518,169.526 176.340,163.278 197.000 C 158.241 213.651,159.219 226.480,166.606 240.667 C 169.013 245.290,169.037 245.322,181.105 259.752 C 187.390 267.268,193.969 275.154,195.725 277.278 C 197.480 279.403,198.997 281.146,199.094 281.153 C 199.192 281.161,204.930 274.400,211.844 266.130 C 218.759 257.860,227.179 247.791,230.555 243.755 C 238.224 234.587,252.609 217.381,262.298 205.785 C 268.152 198.779,270.072 196.361,271.573 194.100 C 297.227 155.490,288.321 103.767,251.259 76.118 C 238.560 66.644,222.768 60.565,207.665 59.337 C 206.429 59.236,204.774 59.082,203.989 58.994 C 202.278 58.802,196.153 58.821,194.167 59.025 M176.896 72.514 C 151.379 73.844,130.519 88.404,119.159 112.816 C 108.358 136.026,110.108 165.652,123.670 189.167 C 127.527 195.855,127.732 196.115,151.227 224.083 C 153.188 226.417,153.449 226.650,153.260 225.897 C 152.703 223.678,152.452 220.886,152.424 216.583 C 152.406 213.793,152.324 211.862,152.208 211.500 C 151.968 210.753,150.945 205.681,150.510 203.083 C 144.186 165.330,154.782 137.255,181.886 119.955 C 194.106 112.154,208.824 106.852,226.627 103.835 C 228.253 103.559,229.771 103.333,230.000 103.331 C 231.127 103.323,231.036 103.048,228.480 98.750 C 221.974 87.808,211.670 79.199,200.274 75.183 C 194.167 73.032,185.643 72.059,176.896 72.514 M295.339 343.218 C 294.190 343.614,293.631 345.241,294.273 346.327 C 295.078 347.690,297.389 347.675,298.099 346.303 C 299.063 344.439,297.350 342.525,295.339 343.218 M58.583 343.902 C 51.525 345.268,47.438 350.809,48.996 356.901 C 50.018 360.896,51.948 362.570,58.917 365.507 C 64.642 367.919,65.493 368.479,65.750 369.997 C 66.542 374.688,58.595 375.361,52.919 371.084 C 51.699 370.164,52.101 369.931,49.516 373.048 C 46.994 376.088,47.112 375.784,48.125 376.629 C 54.979 382.342,66.133 382.471,71.343 376.896 C 74.957 373.029,75.044 366.587,71.531 362.946 C 70.121 361.485,68.962 360.869,63.324 358.585 C 58.177 356.501,57.200 355.868,56.933 354.444 C 56.506 352.169,58.300 350.749,61.583 350.763 C 64.166 350.774,65.523 351.256,68.528 353.228 L 68.972 353.520 70.986 351.017 C 73.277 348.169,73.140 348.444,72.542 347.904 C 68.946 344.661,63.189 343.011,58.583 343.902 M210.000 362.167 L 210.000 380.333 211.250 380.333 L 212.500 380.333 212.500 362.167 L 212.500 344.000 211.250 344.000 L 210.000 344.000 210.000 362.167 M183.487 345.875 C 183.480 345.990,183.273 347.621,183.029 349.500 L 182.583 352.917 180.500 353.107 C 179.354 353.212,178.398 353.306,178.375 353.315 C 178.352 353.325,178.333 354.683,178.333 356.333 L 178.333 359.333 180.237 359.333 L 182.142 359.333 182.208 366.458 C 182.270 373.113,182.298 373.657,182.623 374.700 C 184.043 379.251,187.046 381.165,192.417 380.944 C 194.408 380.862,197.206 380.364,197.530 380.035 C 197.827 379.733,196.430 374.147,196.083 374.249 C 193.441 375.026,191.745 374.620,190.833 372.994 L 190.417 372.250 190.368 365.792 L 190.319 359.333 193.576 359.333 L 196.833 359.333 196.833 356.167 L 196.833 353.000 193.583 353.000 L 190.333 353.000 190.333 349.333 L 190.333 345.667 186.917 345.667 C 184.301 345.667,183.497 345.716,183.487 345.875 M89.672 352.600 C 88.339 352.958,86.573 353.855,85.299 354.820 C 83.937 355.852,84.082 355.872,83.846 354.625 C 83.737 354.052,83.609 353.452,83.563 353.292 C 83.485 353.026,83.176 353.000,80.155 353.000 L 76.833 353.000 76.833 371.750 L 76.833 390.500 80.940 390.500 L 85.046 390.500 84.946 384.792 C 84.890 381.652,84.793 378.863,84.730 378.593 L 84.616 378.102 85.349 378.696 C 92.372 384.376,101.341 379.152,102.632 368.629 C 103.910 358.204,97.647 350.457,89.672 352.600 M118.663 352.713 C 116.694 353.384,114.773 355.044,113.546 357.133 C 112.992 358.078,112.962 358.019,112.669 355.363 L 112.417 353.083 109.125 353.038 L 105.833 352.993 105.833 366.663 L 105.833 380.333 109.833 380.333 L 113.833 380.333 113.833 372.399 L 113.833 364.465 114.453 363.286 C 116.085 360.181,118.619 359.028,122.412 359.667 L 122.907 359.750 123.541 356.422 C 123.889 354.591,124.141 353.008,124.101 352.903 C 123.856 352.264,120.340 352.141,118.663 352.713 M133.679 352.504 C 119.349 355.513,119.243 377.783,133.545 380.737 C 143.357 382.763,151.325 373.946,149.272 363.333 C 147.840 355.929,140.767 351.016,133.679 352.504 M152.211 363.208 C 152.280 374.571,152.268 374.440,153.500 376.943 C 155.988 381.995,163.178 382.479,167.973 377.915 L 169.441 376.518 169.741 378.426 L 170.040 380.333 173.353 380.333 L 176.667 380.333 176.667 366.667 L 176.667 353.000 172.583 353.000 L 168.500 353.000 168.500 362.148 L 168.500 371.295 167.516 372.317 C 165.407 374.505,162.338 374.764,161.055 372.860 C 160.388 371.870,160.333 371.039,160.333 361.825 L 160.333 353.000 156.241 353.000 L 152.148 353.000 152.211 363.208 M229.622 353.427 C 227.835 353.860,226.021 354.922,223.882 356.786 C 223.221 357.362,222.647 357.833,222.605 357.833 C 222.563 357.833,222.476 356.933,222.410 355.833 L 222.291 353.833 221.229 353.833 L 220.167 353.833 220.167 367.083 L 220.167 380.333 221.417 380.333 L 222.667 380.333 222.667 370.256 L 222.667 360.179 224.334 358.714 C 228.647 354.926,232.775 354.253,235.427 356.906 C 237.225 358.704,237.331 359.484,237.332 371.042 L 237.333 380.333 238.593 380.333 L 239.852 380.333 239.789 370.375 C 239.719 359.469,239.699 359.226,238.693 357.098 C 237.204 353.949,233.558 352.474,229.622 353.427 M275.417 353.402 C 263.228 356.220,262.416 376.531,274.333 380.500 C 282.334 383.165,289.525 376.911,289.569 367.250 C 289.613 357.902,283.180 351.608,275.417 353.402 M312.554 353.350 C 300.898 355.296,298.786 375.069,309.708 379.990 C 313.647 381.765,318.187 381.203,321.851 378.487 C 323.195 377.491,323.164 377.596,322.404 376.601 L 321.808 375.821 321.278 376.285 C 316.469 380.495,309.318 379.298,306.633 373.833 C 301.197 362.771,311.004 350.505,319.919 357.213 L 321.083 358.089 321.789 357.266 C 322.626 356.290,322.647 356.335,320.766 355.103 C 318.086 353.349,315.661 352.831,312.554 353.350 M333.417 353.337 C 325.837 354.853,321.600 364.607,324.787 373.205 C 327.471 380.445,335.850 383.159,343.122 379.145 C 343.788 378.777,344.333 378.444,344.333 378.405 C 344.333 378.207,343.397 376.671,343.276 376.669 C 343.198 376.668,342.936 376.807,342.692 376.979 C 335.662 381.936,327.100 377.492,326.278 368.458 L 326.191 367.500 335.741 367.500 L 345.292 367.500 345.396 366.979 C 345.830 364.808,345.068 360.380,343.866 358.092 C 341.983 354.505,337.583 352.503,333.417 353.337 M354.294 353.328 C 350.226 354.069,347.667 356.936,347.871 360.523 C 348.050 363.694,349.954 365.455,355.417 367.502 C 361.199 369.668,362.656 370.925,362.661 373.750 C 362.671 379.222,354.866 380.754,349.087 376.415 C 347.874 375.504,348.006 375.502,347.272 376.444 C 346.514 377.418,346.509 377.381,347.458 378.079 C 354.777 383.458,364.824 381.088,365.138 373.909 C 365.315 369.849,363.694 368.172,357.167 365.667 C 351.441 363.469,350.137 362.322,350.375 359.695 C 350.771 355.327,356.914 353.828,361.616 356.953 L 362.648 357.639 363.306 356.766 L 363.965 355.894 363.191 355.373 C 360.613 353.635,357.073 352.821,354.294 353.328 M242.539 354.042 C 242.581 354.156,244.813 360.119,247.500 367.292 L 252.386 380.333 253.859 380.333 C 254.670 380.333,255.333 380.307,255.333 380.275 C 255.333 380.243,256.165 377.974,257.182 375.233 C 263.071 359.363,265.000 354.119,265.000 353.984 C 265.000 353.482,262.669 353.839,262.448 354.375 C 262.325 354.673,260.357 360.148,258.074 366.542 C 255.792 372.935,253.885 378.167,253.837 378.166 C 253.789 378.166,253.233 376.685,252.600 374.875 C 251.968 373.064,250.026 367.590,248.284 362.708 L 245.117 353.833 243.791 353.833 C 242.801 353.833,242.483 353.886,242.539 354.042 M294.833 367.083 L 294.833 380.333 296.083 380.333 L 297.333 380.333 297.333 367.083 L 297.333 353.833 296.083 353.833 L 294.833 353.833 294.833 367.083 M279.757 355.589 C 289.534 358.101,289.653 376.040,279.910 378.578 C 273.601 380.221,268.595 375.176,268.586 367.167 C 268.578 359.144,273.547 353.993,279.757 355.589 M338.709 356.047 C 341.341 357.348,342.714 359.901,343.098 364.208 L 343.213 365.500 334.715 365.500 L 326.217 365.500 326.360 364.542 C 327.402 357.548,333.399 353.423,338.709 356.047 M137.602 359.080 C 142.213 360.449,142.704 371.739,138.250 373.980 C 134.841 375.696,131.807 373.170,131.339 368.227 C 130.733 361.821,133.454 357.848,137.602 359.080 M91.464 359.258 C 95.594 360.981,95.470 371.824,91.297 373.904 C 89.701 374.699,87.385 374.392,85.684 373.160 L 85.000 372.665 85.000 367.033 L 85.000 361.401 85.625 360.810 C 87.423 359.110,89.673 358.512,91.464 359.258 " stroke="none" fill="#ffffff" fill-rule="evenodd"></path><path id="path2" d="M191.333 28.833 C 190.852 28.935,190.949 28.960,191.885 28.978 C 192.604 28.992,192.982 28.939,192.917 28.833 C 192.802 28.648,192.215 28.648,191.333 28.833 M196.375 28.791 C 197.819 28.819,200.181 28.819,201.625 28.791 C 203.069 28.764,201.887 28.741,199.000 28.741 C 196.112 28.741,194.931 28.764,196.375 28.791 M206.500 28.833 C 206.219 28.923,206.517 28.966,207.417 28.964 C 208.360 28.961,208.604 28.923,208.250 28.833 C 207.599 28.668,207.017 28.668,206.500 28.833 M188.417 29.039 C 186.637 29.240,186.722 29.332,188.583 29.222 C 189.500 29.167,190.272 29.105,190.299 29.082 C 190.457 28.950,189.416 28.926,188.417 29.039 M209.796 29.122 C 210.188 29.157,210.788 29.157,211.129 29.121 C 211.471 29.085,211.150 29.057,210.417 29.057 C 209.683 29.058,209.404 29.087,209.796 29.122 M213.063 29.354 C 212.857 29.435,213.020 29.481,213.542 29.488 C 213.977 29.495,214.333 29.471,214.333 29.436 C 214.333 29.299,213.361 29.237,213.063 29.354 M185.711 29.453 C 185.964 29.491,186.339 29.490,186.544 29.451 C 186.749 29.411,186.542 29.380,186.083 29.381 C 185.625 29.382,185.457 29.415,185.711 29.453 M182.833 29.682 L 182.417 29.800 182.833 29.804 C 183.063 29.807,183.588 29.746,184.000 29.670 L 184.750 29.532 184.000 29.547 C 183.588 29.556,183.063 29.616,182.833 29.682 M214.847 29.561 C 214.885 29.595,215.404 29.668,216.000 29.723 C 216.698 29.788,216.965 29.770,216.750 29.673 C 216.436 29.532,214.698 29.430,214.847 29.561 M181.185 29.858 C 180.783 29.931,180.408 30.037,180.352 30.094 C 180.246 30.202,181.863 30.005,181.986 29.895 C 182.152 29.748,181.866 29.734,181.185 29.858 M217.500 29.826 C 217.637 29.919,217.894 29.996,218.069 29.997 C 218.496 30.001,218.363 29.905,217.750 29.768 C 217.385 29.687,217.317 29.702,217.500 29.826 M179.333 30.167 C 178.935 30.294,178.941 30.301,179.448 30.317 C 179.741 30.326,180.027 30.258,180.083 30.167 C 180.202 29.975,179.932 29.975,179.333 30.167 M219.585 30.169 C 219.641 30.259,219.919 30.333,220.204 30.333 C 220.834 30.333,220.770 30.250,220.033 30.110 C 219.690 30.044,219.521 30.067,219.585 30.169 M177.500 30.500 C 177.298 30.631,177.322 30.662,177.625 30.664 C 177.831 30.666,178.000 30.592,178.000 30.500 C 178.000 30.291,177.823 30.291,177.500 30.500 M175.917 30.841 C 175.684 30.946,175.785 30.961,176.250 30.891 C 176.617 30.835,176.948 30.762,176.986 30.728 C 177.129 30.602,176.237 30.696,175.917 30.841 M222.681 30.728 C 222.719 30.762,223.050 30.839,223.417 30.901 C 223.894 30.981,224.012 30.964,223.833 30.842 C 223.608 30.689,222.513 30.580,222.681 30.728 M173.583 31.333 L 173.250 31.477 173.583 31.477 C 173.767 31.477,174.067 31.412,174.250 31.333 L 174.583 31.190 174.250 31.190 C 174.067 31.190,173.767 31.255,173.583 31.333 M227.000 31.667 C 227.570 31.849,228.008 31.849,227.583 31.667 C 227.400 31.588,227.100 31.526,226.917 31.528 C 226.649 31.532,226.665 31.559,227.000 31.667 M170.667 32.000 C 170.348 32.206,170.691 32.206,171.333 32.000 L 171.750 31.867 171.333 31.852 C 171.104 31.845,170.804 31.911,170.667 32.000 M228.833 31.981 C 228.833 32.166,229.809 32.413,229.956 32.266 C 230.011 32.211,229.968 32.167,229.861 32.167 C 229.533 32.167,229.427 32.140,229.125 31.978 C 228.942 31.880,228.833 31.881,228.833 31.981 M231.750 32.833 C 232.209 33.030,232.372 33.030,232.250 32.833 C 232.193 32.742,231.983 32.672,231.782 32.678 C 231.430 32.690,231.429 32.695,231.750 32.833 M166.244 33.165 C 165.445 33.538,165.510 33.567,166.487 33.275 C 166.892 33.154,167.151 33.010,167.064 32.956 C 166.976 32.902,166.607 32.996,166.244 33.165 M232.765 32.957 C 232.709 33.013,232.943 33.155,233.284 33.272 C 234.080 33.546,234.156 33.470,233.432 33.124 C 233.121 32.976,232.821 32.901,232.765 32.957 M163.250 34.114 L 162.750 34.348 163.250 34.244 C 163.766 34.136,163.940 34.044,163.819 33.940 C 163.781 33.907,163.525 33.986,163.250 34.114 M235.932 34.071 C 236.216 34.194,236.704 34.341,237.016 34.397 C 237.382 34.463,237.258 34.383,236.667 34.171 C 235.623 33.797,235.159 33.734,235.932 34.071 M238.000 34.682 C 238.000 34.765,238.069 34.833,238.153 34.833 C 238.237 34.833,238.437 34.884,238.597 34.945 C 238.780 35.015,238.848 34.992,238.780 34.882 C 238.638 34.651,238.000 34.488,238.000 34.682 M160.500 35.000 C 160.278 35.144,160.278 35.162,160.500 35.162 C 160.637 35.162,160.862 35.089,161.000 35.000 C 161.222 34.856,161.222 34.838,161.000 34.838 C 160.862 34.838,160.637 34.911,160.500 35.000 M240.408 35.567 C 240.953 35.800,241.430 35.959,241.468 35.921 C 241.553 35.836,240.414 35.354,239.843 35.234 C 239.609 35.185,239.863 35.335,240.408 35.567 M158.500 35.763 L 158.083 36.014 158.500 35.903 C 159.105 35.743,159.501 35.510,159.167 35.511 C 159.029 35.511,158.729 35.625,158.500 35.763 M157.042 36.248 C 156.245 36.595,156.382 36.710,157.208 36.388 C 158.032 36.068,158.144 35.998,157.819 36.007 C 157.690 36.010,157.340 36.119,157.042 36.248 M242.195 36.211 C 242.531 36.324,242.862 36.473,242.931 36.542 C 243.108 36.719,243.372 36.697,243.259 36.514 C 243.207 36.430,243.259 36.324,243.374 36.277 C 243.489 36.231,243.386 36.187,243.146 36.180 C 242.905 36.173,242.455 36.131,242.146 36.086 L 241.583 36.006 242.195 36.211 M154.571 37.246 C 154.395 37.380,154.325 37.491,154.417 37.492 C 154.664 37.496,155.088 37.199,154.983 37.094 C 154.933 37.044,154.748 37.113,154.571 37.246 M153.292 37.714 C 152.234 38.179,152.272 38.410,153.333 37.969 C 153.792 37.778,154.167 37.557,154.167 37.478 C 154.167 37.398,154.148 37.341,154.125 37.350 C 154.102 37.359,153.727 37.523,153.292 37.714 M151.667 38.533 C 150.604 38.986,148.167 40.173,148.167 40.238 C 148.167 40.308,152.177 38.531,152.319 38.398 C 152.447 38.279,152.089 38.354,151.667 38.533 M248.500 38.917 C 249.048 39.230,249.319 39.233,248.907 38.922 C 248.729 38.787,248.471 38.678,248.333 38.678 C 248.188 38.678,248.258 38.779,248.500 38.917 M249.667 39.404 C 250.131 39.684,250.496 39.757,250.242 39.519 C 250.155 39.437,249.896 39.322,249.667 39.262 L 249.250 39.153 249.667 39.404 M145.690 41.418 C 144.556 41.997,143.544 42.559,143.440 42.667 C 143.258 42.854,147.314 40.862,147.833 40.509 C 148.470 40.076,147.570 40.457,145.690 41.418 M251.833 40.414 C 251.833 40.459,252.283 40.722,252.833 41.000 C 254.085 41.632,254.138 41.537,252.919 40.849 C 252.002 40.332,251.833 40.264,251.833 40.414 M254.000 41.534 C 254.232 41.744,256.343 42.818,256.260 42.683 C 256.139 42.487,254.789 41.727,254.290 41.573 C 254.084 41.510,253.954 41.493,254.000 41.534 M142.457 43.229 C 141.656 43.721,141.433 43.954,142.083 43.617 C 142.606 43.347,143.311 42.844,143.167 42.844 C 143.121 42.844,142.801 43.017,142.457 43.229 M256.755 43.057 C 256.935 43.181,257.608 43.569,258.250 43.920 C 258.892 44.272,259.717 44.758,260.083 45.001 C 260.983 45.597,261.167 45.700,261.167 45.607 C 261.167 45.563,260.902 45.364,260.579 45.164 C 260.256 44.964,259.898 44.714,259.785 44.609 C 259.671 44.503,259.279 44.268,258.914 44.085 C 258.549 43.903,257.917 43.547,257.509 43.294 C 256.768 42.833,256.135 42.635,256.755 43.057 M139.417 44.952 C 138.500 45.538,137.675 46.102,137.583 46.206 C 137.398 46.415,137.613 46.291,139.667 44.997 C 141.339 43.944,141.240 44.014,141.153 43.944 C 141.115 43.913,140.333 44.367,139.417 44.952 M262.838 46.712 C 263.436 47.100,264.299 47.686,264.755 48.015 C 265.210 48.344,265.696 48.674,265.833 48.748 C 266.269 48.982,265.808 48.590,264.750 47.826 C 264.200 47.429,263.725 47.043,263.694 46.969 C 263.664 46.894,263.547 46.833,263.435 46.833 C 263.323 46.833,262.977 46.646,262.667 46.417 C 262.356 46.188,262.023 46.002,261.926 46.004 C 261.829 46.006,262.240 46.324,262.838 46.712 M136.423 46.820 C 135.969 47.081,135.567 47.384,135.530 47.494 C 135.493 47.604,135.884 47.415,136.398 47.074 C 136.912 46.732,137.333 46.426,137.333 46.393 C 137.333 46.302,137.309 46.314,136.423 46.820 M133.646 48.745 C 132.774 49.338,131.915 49.993,131.738 50.200 C 131.469 50.516,131.511 50.504,132.000 50.127 C 132.321 49.880,133.202 49.256,133.958 48.740 C 135.165 47.918,135.474 47.667,135.283 47.667 C 135.255 47.667,134.519 48.152,133.646 48.745 M266.577 49.249 C 266.848 49.470,267.103 49.620,267.142 49.580 C 267.238 49.484,266.462 48.844,266.250 48.845 C 266.158 48.845,266.305 49.027,266.577 49.249 M267.750 50.082 C 268.025 50.333,268.438 50.658,268.667 50.805 C 268.896 50.952,269.646 51.515,270.333 52.058 C 271.204 52.744,271.384 52.847,270.929 52.397 C 270.284 51.760,269.977 51.524,268.848 50.800 C 268.535 50.599,268.366 50.406,268.473 50.370 C 268.790 50.264,268.694 50.045,268.292 49.958 C 268.085 49.913,267.767 49.820,267.583 49.751 C 267.345 49.662,267.392 49.756,267.750 50.082 M129.667 51.691 C 129.162 52.071,128.469 52.633,128.125 52.941 C 127.781 53.248,127.443 53.502,127.375 53.504 C 127.215 53.509,125.386 55.167,125.540 55.167 C 125.604 55.167,126.021 54.848,126.468 54.458 C 126.914 54.069,128.042 53.154,128.973 52.425 C 130.491 51.236,130.767 50.998,130.625 51.001 C 130.602 51.001,130.171 51.312,129.667 51.691 M271.750 53.125 C 272.097 53.470,274.402 55.433,274.898 55.806 L 275.417 56.195 274.875 55.710 C 274.301 55.197,274.200 54.915,274.542 54.777 C 274.656 54.731,274.579 54.687,274.369 54.680 C 273.954 54.665,273.335 54.305,272.673 53.692 C 272.257 53.308,271.411 52.788,271.750 53.125 M124.881 55.625 C 124.696 55.785,124.190 56.217,123.758 56.583 C 123.325 56.950,122.892 57.400,122.795 57.583 C 122.699 57.767,123.137 57.434,123.768 56.845 C 124.400 56.255,125.026 55.674,125.161 55.553 C 125.528 55.222,125.269 55.289,124.881 55.625 M276.583 57.253 C 277.225 57.873,279.135 59.739,280.829 61.399 C 282.522 63.059,283.797 64.271,283.662 64.093 C 283.190 63.472,277.882 58.241,276.655 57.187 L 275.417 56.125 276.583 57.253 M121.752 58.332 C 121.085 59.028,121.290 59.082,122.000 58.398 C 122.321 58.088,122.504 57.835,122.406 57.834 C 122.309 57.834,122.014 58.058,121.752 58.332 M120.287 59.792 C 120.048 60.044,119.432 60.663,118.918 61.167 C 118.404 61.671,117.906 62.233,117.811 62.417 C 117.716 62.600,118.001 62.352,118.444 61.865 C 118.887 61.378,119.662 60.612,120.167 60.164 C 120.671 59.715,121.002 59.345,120.903 59.341 C 120.803 59.337,120.526 59.540,120.287 59.792 M115.249 65.037 C 114.516 65.868,113.504 67.006,112.999 67.566 C 112.494 68.125,111.907 68.846,111.695 69.167 L 111.309 69.750 111.752 69.250 C 111.995 68.975,112.384 68.525,112.616 68.250 C 113.199 67.560,115.225 65.269,115.343 65.167 C 115.691 64.866,116.701 63.646,116.647 63.592 C 116.611 63.556,115.982 64.206,115.249 65.037 M284.577 65.324 C 285.032 65.788,285.435 66.167,285.474 66.167 C 285.615 66.167,284.241 64.700,284.000 64.593 C 283.862 64.532,284.122 64.861,284.577 65.324 M286.312 67.308 C 286.981 68.106,287.500 68.613,287.500 68.465 C 287.500 68.424,287.201 68.058,286.836 67.653 C 286.470 67.248,286.170 66.868,286.169 66.809 C 286.168 66.751,286.047 66.656,285.900 66.600 C 285.754 66.544,285.939 66.862,286.312 67.308 M288.443 69.837 C 288.959 70.481,289.427 70.962,289.482 70.907 C 289.538 70.851,289.469 70.718,289.329 70.611 C 289.190 70.504,288.790 70.023,288.440 69.542 C 288.091 69.060,287.737 68.667,287.654 68.667 C 287.572 68.667,287.926 69.193,288.443 69.837 M110.763 70.297 L 110.443 70.750 110.888 70.346 C 111.356 69.921,111.414 69.830,111.208 69.839 C 111.140 69.841,110.939 70.048,110.763 70.297 M290.449 72.402 C 290.981 73.090,291.824 74.217,292.322 74.907 C 292.820 75.597,293.259 76.130,293.297 76.092 C 293.336 76.053,293.149 75.736,292.883 75.386 C 291.937 74.143,290.911 72.741,290.511 72.146 C 290.288 71.814,289.965 71.455,289.794 71.347 C 289.622 71.240,289.917 71.715,290.449 72.402 M109.667 71.635 C 109.667 71.710,109.529 71.918,109.362 72.098 C 108.980 72.507,108.434 73.333,108.544 73.333 C 108.590 73.333,108.938 72.921,109.319 72.417 C 109.699 71.912,109.933 71.500,109.839 71.500 C 109.744 71.500,109.667 71.561,109.667 71.635 M107.441 74.593 C 106.996 75.195,106.659 75.715,106.693 75.749 C 106.728 75.783,107.148 75.291,107.628 74.656 C 108.108 74.020,108.445 73.500,108.376 73.500 C 108.307 73.500,107.886 73.992,107.441 74.593 M105.894 76.875 C 105.009 78.089,104.305 79.194,104.374 79.262 C 104.405 79.294,104.840 78.717,105.340 77.981 C 105.841 77.245,106.353 76.498,106.479 76.321 C 106.604 76.145,106.668 76.000,106.619 76.000 C 106.571 76.000,106.244 76.394,105.894 76.875 M295.013 78.875 C 295.383 79.448,295.767 79.992,295.867 80.083 C 296.099 80.296,295.932 79.983,295.333 79.083 C 295.089 78.717,294.842 78.285,294.783 78.125 C 294.725 77.965,294.601 77.833,294.509 77.833 C 294.416 77.833,294.643 78.302,295.013 78.875 M103.659 80.262 C 103.370 80.681,103.171 81.059,103.215 81.103 C 103.258 81.147,103.528 80.805,103.812 80.342 C 104.458 79.292,104.361 79.241,103.659 80.262 M296.285 80.833 C 297.338 82.634,297.894 83.495,297.960 83.429 C 298.000 83.388,297.745 82.899,297.392 82.341 C 297.039 81.783,296.665 81.171,296.561 80.982 C 296.457 80.793,296.276 80.551,296.158 80.444 C 296.040 80.337,296.098 80.512,296.285 80.833 M102.698 81.827 C 102.289 82.380,102.199 82.771,102.601 82.250 C 102.907 81.852,103.202 81.333,103.121 81.333 C 103.089 81.333,102.899 81.555,102.698 81.827 M101.563 83.792 C 101.411 84.044,101.156 84.441,100.997 84.674 C 100.579 85.286,99.989 86.545,100.078 86.634 C 100.120 86.676,100.249 86.494,100.365 86.230 C 100.481 85.966,100.810 85.375,101.096 84.917 C 101.764 83.847,102.034 83.333,101.926 83.333 C 101.879 83.333,101.716 83.540,101.563 83.792 M298.644 84.848 C 299.029 85.527,299.759 86.897,300.266 87.893 C 300.772 88.888,301.221 89.668,301.263 89.626 C 301.397 89.492,298.432 83.914,298.127 83.725 C 298.027 83.663,298.260 84.169,298.644 84.848 M98.505 89.434 C 98.215 89.947,98.016 90.405,98.061 90.450 C 98.107 90.496,98.376 90.076,98.658 89.517 C 99.301 88.243,99.206 88.191,98.505 89.434 M301.333 89.839 C 301.333 89.882,301.622 90.518,301.976 91.251 C 302.329 91.984,302.828 93.054,303.083 93.628 C 303.339 94.203,303.576 94.646,303.610 94.612 C 303.670 94.552,303.310 93.701,302.295 91.501 C 301.841 90.517,301.333 89.640,301.333 89.839 M97.671 91.071 C 97.424 91.722,97.473 91.825,97.770 91.277 C 97.911 91.017,97.985 90.763,97.934 90.712 C 97.884 90.662,97.766 90.823,97.671 91.071 M96.977 92.597 C 96.791 93.017,96.668 93.391,96.705 93.427 C 96.741 93.463,96.928 93.119,97.121 92.663 C 97.314 92.207,97.436 91.833,97.393 91.833 C 97.350 91.833,97.163 92.177,96.977 92.597 M96.438 93.798 C 96.275 94.062,96.005 94.833,96.075 94.833 C 96.184 94.833,96.675 93.786,96.601 93.712 C 96.564 93.675,96.491 93.714,96.438 93.798 M303.673 94.881 C 303.670 94.954,303.922 95.591,304.233 96.298 C 304.544 97.005,304.892 97.829,305.005 98.130 C 305.119 98.431,305.252 98.637,305.300 98.588 C 305.349 98.540,305.312 98.331,305.216 98.125 C 304.788 97.196,304.249 95.935,304.244 95.847 C 304.233 95.679,303.680 94.744,303.673 94.881 M93.949 99.752 C 93.797 100.072,93.739 100.333,93.820 100.333 C 93.966 100.333,94.384 99.329,94.281 99.225 C 94.251 99.195,94.102 99.432,93.949 99.752 M306.548 102.245 C 306.740 102.839,306.925 103.297,306.957 103.265 C 307.050 103.172,306.429 101.167,306.307 101.167 C 306.246 101.167,306.355 101.652,306.548 102.245 M92.500 103.869 C 92.500 103.918,92.386 104.231,92.248 104.563 C 92.109 104.895,92.059 105.167,92.136 105.167 C 92.296 105.167,92.698 103.975,92.578 103.856 C 92.535 103.813,92.500 103.819,92.500 103.869 M307.345 104.514 C 307.351 104.644,307.424 104.900,307.506 105.083 C 307.634 105.371,307.649 105.354,307.612 104.965 C 307.567 104.501,307.324 104.089,307.345 104.514 M91.944 105.444 C 91.883 105.506,91.838 105.712,91.844 105.903 C 91.854 106.222,91.867 106.218,92.014 105.851 C 92.177 105.443,92.144 105.245,91.944 105.444 M91.614 106.564 C 91.551 106.727,91.505 106.986,91.511 107.139 C 91.518 107.323,91.575 107.281,91.682 107.014 C 91.770 106.793,91.817 106.534,91.785 106.439 C 91.754 106.344,91.677 106.400,91.614 106.564 M308.190 107.167 C 308.190 107.304,308.255 107.567,308.333 107.750 C 308.424 107.960,308.477 107.991,308.477 107.833 C 308.477 107.696,308.412 107.433,308.333 107.250 C 308.243 107.040,308.190 107.009,308.190 107.167 M308.755 109.250 C 308.872 109.806,308.954 109.935,309.096 109.793 C 309.149 109.740,309.070 109.483,308.921 109.223 L 308.649 108.750 308.755 109.250 M90.600 109.997 C 90.351 110.835,90.088 112.252,90.244 111.917 C 90.401 111.578,90.976 109.254,90.917 109.195 C 90.883 109.161,90.741 109.522,90.600 109.997 M89.651 113.681 C 89.643 113.719,89.609 114.013,89.576 114.333 L 89.516 114.917 89.684 114.357 C 89.777 114.049,89.811 113.755,89.760 113.704 C 89.708 113.653,89.660 113.642,89.651 113.681 M310.225 115.000 C 310.285 115.229,310.380 115.697,310.438 116.039 C 310.495 116.381,310.603 116.623,310.678 116.576 C 310.753 116.530,310.708 116.137,310.578 115.704 C 310.448 115.271,310.345 114.892,310.351 114.861 C 310.357 114.831,310.306 114.756,310.239 114.694 C 310.172 114.633,310.166 114.771,310.225 115.000 M89.192 115.800 C 88.918 117.061,88.981 117.444,89.267 116.260 C 89.399 115.715,89.479 115.190,89.445 115.093 C 89.411 114.996,89.297 115.314,89.192 115.800 M310.776 117.583 C 310.832 117.950,310.905 118.281,310.939 118.319 C 311.065 118.463,310.971 117.570,310.826 117.250 C 310.720 117.018,310.705 117.119,310.776 117.583 M311.033 118.917 C 311.033 119.100,311.093 119.438,311.167 119.667 C 311.272 119.997,311.300 120.014,311.300 119.750 C 311.300 119.567,311.240 119.229,311.167 119.000 C 311.061 118.670,311.033 118.653,311.033 118.917 M311.372 120.667 C 311.372 120.987,311.406 121.119,311.448 120.958 C 311.490 120.798,311.490 120.535,311.448 120.375 C 311.406 120.215,311.372 120.346,311.372 120.667 M87.940 122.535 C 87.884 122.745,87.845 123.104,87.854 123.333 C 87.863 123.579,87.929 123.446,88.015 123.011 C 88.168 122.230,88.114 121.886,87.940 122.535 M311.833 123.740 C 311.833 123.964,311.895 124.185,311.970 124.231 C 312.045 124.278,312.074 124.095,312.034 123.825 C 311.947 123.229,311.833 123.181,311.833 123.740 M87.659 124.787 C 87.613 125.175,87.639 125.428,87.716 125.350 C 87.794 125.273,87.832 124.956,87.800 124.646 C 87.743 124.097,87.740 124.101,87.659 124.787 M312.000 124.917 C 312.000 125.146,312.065 125.333,312.144 125.333 C 312.223 125.333,312.251 125.146,312.207 124.917 C 312.164 124.688,312.099 124.500,312.064 124.500 C 312.029 124.500,312.000 124.688,312.000 124.917 M87.437 125.971 C 87.363 126.184,87.347 126.403,87.401 126.457 C 87.574 126.630,87.696 126.375,87.632 125.973 L 87.571 125.583 87.437 125.971 M312.180 126.448 C 312.173 126.833,312.226 127.184,312.299 127.228 C 312.371 127.273,312.403 127.034,312.370 126.697 C 312.279 125.774,312.195 125.664,312.180 126.448 M87.372 127.500 C 87.372 127.821,87.406 127.952,87.448 127.792 C 87.490 127.631,87.490 127.369,87.448 127.208 C 87.406 127.048,87.372 127.179,87.372 127.500 M312.372 128.167 C 312.372 128.487,312.406 128.619,312.448 128.458 C 312.490 128.298,312.490 128.035,312.448 127.875 C 312.406 127.715,312.372 127.846,312.372 128.167 M87.108 129.453 C 87.051 129.800,87.013 130.496,87.024 131.000 C 87.042 131.760,87.069 131.663,87.188 130.429 C 87.336 128.893,87.291 128.346,87.108 129.453 M312.548 129.750 C 312.549 130.208,312.581 130.376,312.620 130.123 C 312.658 129.869,312.657 129.494,312.617 129.289 C 312.578 129.084,312.546 129.292,312.548 129.750 M312.683 131.875 C 312.674 132.414,312.740 132.833,312.833 132.833 C 313.027 132.833,313.027 131.939,312.833 131.333 C 312.731 131.015,312.696 131.144,312.683 131.875 M312.895 134.667 C 312.895 135.629,312.923 136.023,312.956 135.542 C 312.990 135.060,312.990 134.273,312.956 133.792 C 312.923 133.310,312.895 133.704,312.895 134.667 M86.909 141.333 C 86.909 144.954,86.931 146.435,86.958 144.625 C 86.985 142.815,86.985 139.852,86.958 138.042 C 86.931 136.231,86.909 137.712,86.909 141.333 M312.894 148.583 C 312.895 149.500,312.923 149.854,312.956 149.369 C 312.990 148.885,312.990 148.135,312.956 147.703 C 312.921 147.270,312.894 147.667,312.894 148.583 M312.683 151.282 C 312.696 152.018,312.732 152.150,312.833 151.833 C 313.026 151.231,313.026 150.536,312.833 150.417 C 312.729 150.352,312.673 150.675,312.683 151.282 M86.954 151.917 C 87.003 152.650,87.100 153.550,87.169 153.917 C 87.241 154.296,87.257 153.865,87.206 152.917 C 87.157 152.000,87.061 151.100,86.991 150.917 C 86.922 150.733,86.905 151.183,86.954 151.917 M312.532 153.352 C 312.514 153.774,312.463 154.487,312.417 154.935 C 312.341 155.688,312.348 155.708,312.508 155.197 C 312.604 154.893,312.655 154.181,312.623 153.614 C 312.574 152.756,312.559 152.712,312.532 153.352 M87.293 155.583 C 87.336 155.813,87.401 156.000,87.436 156.000 C 87.471 156.000,87.500 155.813,87.500 155.583 C 87.500 155.354,87.435 155.167,87.356 155.167 C 87.277 155.167,87.249 155.354,87.293 155.583 M312.212 156.667 C 312.212 157.079,312.245 157.248,312.284 157.042 C 312.324 156.835,312.324 156.498,312.284 156.292 C 312.245 156.085,312.212 156.254,312.212 156.667 M87.336 156.875 C 87.342 157.351,87.662 157.594,87.664 157.125 C 87.666 156.873,87.592 156.667,87.500 156.667 C 87.408 156.667,87.334 156.760,87.336 156.875 M87.605 158.361 C 87.693 159.114,87.833 159.166,87.833 158.444 C 87.833 158.108,87.768 157.833,87.689 157.833 C 87.609 157.833,87.571 158.071,87.605 158.361 M312.025 158.188 C 312.011 158.428,311.963 158.878,311.917 159.188 L 311.834 159.750 312.010 159.191 C 312.106 158.883,312.155 158.433,312.118 158.191 L 312.050 157.750 312.025 158.188 M87.845 159.931 C 87.851 160.198,87.923 160.567,88.004 160.750 C 88.103 160.973,88.119 160.834,88.053 160.333 C 87.936 159.450,87.828 159.242,87.845 159.931 M311.372 162.500 C 311.372 162.821,311.406 162.952,311.448 162.792 C 311.490 162.631,311.490 162.369,311.448 162.208 C 311.406 162.048,311.372 162.179,311.372 162.500 M88.717 164.971 C 88.729 165.276,88.798 165.562,88.870 165.606 C 89.029 165.704,89.013 165.391,88.830 164.833 C 88.706 164.454,88.696 164.466,88.717 164.971 M88.955 166.114 C 88.912 166.189,88.978 166.512,89.100 166.833 L 89.323 167.417 89.223 166.750 C 89.112 166.012,89.070 165.914,88.955 166.114 M310.500 166.893 C 310.500 167.120,310.451 167.443,310.390 167.611 C 310.330 167.779,310.332 167.871,310.395 167.814 C 310.614 167.619,310.812 166.673,310.654 166.576 C 310.569 166.523,310.500 166.666,310.500 166.893 M89.528 168.583 C 89.526 168.767,89.588 169.067,89.667 169.250 C 89.849 169.675,89.849 169.237,89.667 168.667 C 89.559 168.332,89.532 168.315,89.528 168.583 M310.023 169.111 C 310.010 169.310,309.957 169.610,309.904 169.778 C 309.813 170.067,309.818 170.068,309.998 169.787 C 310.103 169.624,310.156 169.324,310.117 169.120 C 310.045 168.750,310.045 168.750,310.023 169.111 M90.195 171.417 C 90.192 171.600,90.255 171.900,90.333 172.083 C 90.516 172.508,90.516 172.070,90.333 171.500 C 90.226 171.165,90.199 171.149,90.195 171.417 M90.672 173.333 C 90.672 173.471,90.744 173.696,90.833 173.833 C 90.977 174.056,90.995 174.056,90.995 173.833 C 90.995 173.696,90.922 173.471,90.833 173.333 C 90.690 173.111,90.672 173.111,90.672 173.333 M91.013 174.523 C 91.006 174.672,91.110 175.047,91.243 175.356 C 91.549 176.059,91.554 175.623,91.250 174.833 C 91.126 174.512,91.020 174.373,91.013 174.523 M308.348 175.348 C 308.236 175.725,308.181 176.070,308.227 176.116 C 308.274 176.163,308.396 175.885,308.500 175.500 C 308.746 174.588,308.615 174.458,308.348 175.348 M91.512 176.282 C 91.505 176.483,91.575 176.693,91.667 176.750 C 91.864 176.872,91.864 176.709,91.667 176.250 C 91.529 175.929,91.523 175.930,91.512 176.282 M307.855 176.992 C 307.739 177.381,307.679 177.734,307.722 177.777 C 307.834 177.889,308.206 176.702,308.130 176.474 C 308.096 176.370,307.972 176.603,307.855 176.992 M91.786 177.336 C 91.834 177.521,91.952 177.720,92.048 177.780 C 92.158 177.848,92.182 177.780,92.112 177.597 C 92.050 177.437,92.000 177.237,92.000 177.153 C 92.000 177.069,91.932 177.000,91.849 177.000 C 91.766 177.000,91.737 177.151,91.786 177.336 M92.667 179.760 C 92.667 179.841,92.765 180.175,93.270 181.816 C 93.309 181.943,93.381 182.008,93.429 181.960 C 93.521 181.868,92.855 179.667,92.736 179.667 C 92.698 179.667,92.667 179.709,92.667 179.760 M93.678 182.604 C 93.672 182.706,93.855 183.194,94.086 183.687 C 94.317 184.180,94.456 184.396,94.395 184.167 C 94.237 183.570,93.692 182.382,93.678 182.604 M305.370 184.116 C 305.277 184.373,305.143 184.727,305.072 184.902 C 304.983 185.122,305.002 185.185,305.132 185.105 C 305.321 184.988,305.710 183.822,305.598 183.709 C 305.565 183.676,305.463 183.860,305.370 184.116 M94.677 185.167 C 94.676 185.304,94.816 185.729,94.989 186.111 C 95.163 186.494,95.261 186.850,95.208 186.903 C 95.155 186.956,95.199 187.000,95.306 187.000 C 95.557 187.000,95.566 187.050,95.090 185.903 C 94.865 185.361,94.679 185.029,94.677 185.167 M304.788 185.625 C 304.742 185.785,304.647 186.067,304.578 186.250 C 304.388 186.748,304.731 186.342,304.965 185.792 C 305.072 185.540,305.095 185.333,305.016 185.333 C 304.937 185.333,304.834 185.465,304.788 185.625 M303.707 188.197 C 303.200 189.349,303.324 189.384,303.882 188.245 C 304.128 187.744,304.274 187.335,304.207 187.337 C 304.139 187.339,303.914 187.726,303.707 188.197 M96.008 188.354 C 95.992 188.563,96.697 190.025,96.775 189.947 C 96.820 189.902,96.667 189.502,96.436 189.058 C 96.205 188.614,96.012 188.297,96.008 188.354 M303.029 189.753 C 302.915 190.004,302.855 190.244,302.897 190.286 C 303.010 190.399,303.364 189.677,303.296 189.472 C 303.264 189.375,303.144 189.501,303.029 189.753 M96.847 190.250 C 96.847 190.342,96.991 190.679,97.167 191.000 C 97.342 191.321,97.486 191.508,97.486 191.417 C 97.486 191.325,97.342 190.987,97.167 190.667 C 96.991 190.346,96.847 190.158,96.847 190.250 M302.035 191.917 C 301.835 192.329,301.726 192.663,301.794 192.659 C 301.947 192.650,302.658 191.167,302.509 191.167 C 302.449 191.167,302.236 191.504,302.035 191.917 M300.603 194.799 C 300.071 195.872,299.710 196.675,299.801 196.583 C 300.047 196.334,301.720 192.998,301.639 192.917 C 301.601 192.879,301.135 193.725,300.603 194.799 M99.004 194.761 C 99.255 195.420,99.519 195.870,99.605 195.784 C 99.683 195.706,99.020 194.333,98.904 194.333 C 98.870 194.333,98.915 194.526,99.004 194.761 M100.117 196.995 C 100.164 197.175,100.319 197.419,100.460 197.536 C 100.678 197.717,100.675 197.666,100.438 197.208 C 100.122 196.596,99.990 196.508,100.117 196.995 M299.126 197.542 C 298.017 199.477,297.650 200.167,297.726 200.167 C 297.771 200.167,298.051 199.735,298.348 199.208 C 298.644 198.681,299.069 197.931,299.293 197.542 C 299.516 197.152,299.661 196.833,299.615 196.833 C 299.569 196.833,299.349 197.152,299.126 197.542 M101.333 199.107 C 101.333 199.165,101.558 199.579,101.833 200.026 C 102.108 200.473,102.333 200.871,102.333 200.912 C 102.333 200.989,102.972 201.974,103.451 202.637 C 103.769 203.076,103.930 203.342,104.456 204.299 C 104.661 204.672,104.912 205.029,105.014 205.092 C 105.276 205.254,104.968 204.702,103.752 202.833 C 103.185 201.963,102.440 200.744,102.096 200.125 C 101.517 199.082,101.333 198.837,101.333 199.107 M296.968 201.292 C 296.654 201.819,296.261 202.456,296.096 202.708 C 295.930 202.960,295.834 203.167,295.883 203.167 C 295.969 203.167,297.098 201.430,297.480 200.708 C 297.879 199.955,297.523 200.360,296.968 201.292 M295.564 203.542 C 294.990 204.515,294.952 204.598,295.245 204.250 C 295.583 203.847,295.875 203.333,295.766 203.333 C 295.722 203.333,295.631 203.427,295.564 203.542 M294.410 205.375 C 294.154 205.765,294.050 205.995,294.180 205.888 C 294.430 205.681,295.068 204.667,294.948 204.667 C 294.909 204.667,294.667 204.985,294.410 205.375 M105.768 206.319 C 105.941 206.613,106.265 207.018,106.487 207.218 C 106.797 207.498,106.759 207.396,106.324 206.778 C 105.660 205.834,105.313 205.548,105.768 206.319 M293.167 207.167 C 292.971 207.442,292.848 207.667,292.894 207.667 C 292.940 207.667,293.138 207.442,293.333 207.167 C 293.529 206.892,293.652 206.667,293.606 206.667 C 293.560 206.667,293.362 206.892,293.167 207.167 M107.048 208.083 C 107.186 208.358,107.476 208.776,107.692 209.010 C 107.907 209.245,108.360 209.808,108.697 210.260 C 109.852 211.809,110.417 212.480,110.573 212.490 C 110.659 212.495,110.537 212.294,110.302 212.042 C 110.066 211.790,109.256 210.758,108.500 209.750 C 106.926 207.650,106.695 207.385,107.048 208.083 M290.667 210.333 C 290.283 210.792,290.006 211.167,290.052 211.167 C 290.098 211.167,290.450 210.792,290.833 210.333 C 291.217 209.875,291.494 209.500,291.448 209.500 C 291.402 209.500,291.050 209.875,290.667 210.333 M110.856 212.911 C 110.981 213.092,111.176 213.354,111.289 213.495 C 111.401 213.635,111.601 213.900,111.733 214.083 C 111.865 214.266,112.011 214.378,112.058 214.331 C 112.105 214.284,111.803 213.871,111.386 213.414 C 110.969 212.957,110.730 212.731,110.856 212.911 M112.167 214.615 C 112.167 214.707,112.317 214.917,112.500 215.083 C 112.683 215.249,112.833 215.310,112.833 215.218 C 112.833 215.127,112.683 214.916,112.500 214.750 C 112.317 214.584,112.167 214.523,112.167 214.615 M113.193 215.750 C 113.655 216.381,116.250 219.417,116.375 219.472 C 116.444 219.503,116.500 219.592,116.500 219.670 C 116.500 219.804,117.195 220.626,118.268 221.759 C 118.843 222.367,118.489 221.859,117.668 220.900 C 117.346 220.525,116.446 219.447,115.667 218.504 C 114.313 216.868,112.680 215.049,113.193 215.750 M284.829 217.375 C 283.652 218.755,283.285 219.242,283.974 218.510 C 284.760 217.674,285.879 216.333,285.791 216.333 C 285.750 216.333,285.317 216.802,284.829 217.375 M281.395 221.452 C 280.949 221.975,280.670 222.350,280.777 222.284 C 281.009 222.141,282.398 220.500,282.286 220.500 C 282.243 220.500,281.842 220.928,281.395 221.452 M118.833 222.554 C 118.833 222.606,119.106 222.934,119.438 223.282 C 119.967 223.837,119.999 223.852,119.696 223.402 C 119.346 222.883,118.833 222.379,118.833 222.554 M120.927 225.000 C 121.373 225.596,121.984 226.346,122.284 226.667 C 122.585 226.987,122.831 227.296,122.832 227.352 C 122.833 227.408,123.077 227.712,123.375 228.028 C 123.673 228.344,124.126 228.851,124.382 229.155 C 124.638 229.460,124.878 229.678,124.916 229.640 C 124.953 229.602,124.778 229.349,124.526 229.077 C 124.274 228.806,123.294 227.646,122.348 226.500 C 120.323 224.047,119.796 223.491,120.927 225.000 M275.494 228.507 C 275.108 228.969,274.819 229.371,274.854 229.401 C 274.888 229.431,275.239 229.053,275.633 228.561 C 276.539 227.429,276.432 227.387,275.494 228.507 M125.677 230.711 C 126.084 231.226,126.480 231.652,126.557 231.657 C 126.712 231.668,125.414 230.069,125.120 229.888 C 125.019 229.825,125.270 230.196,125.677 230.711 M273.320 231.125 C 272.429 232.123,272.092 232.549,272.277 232.443 C 272.383 232.382,272.784 231.958,273.167 231.499 C 273.903 230.620,274.015 230.346,273.320 231.125 M126.979 232.292 C 127.163 232.544,127.737 233.200,128.253 233.750 C 129.032 234.579,128.986 234.501,127.983 233.292 C 126.802 231.866,126.310 231.377,126.979 232.292 M129.328 235.083 C 129.463 235.267,129.688 235.541,129.828 235.694 C 129.969 235.846,130.383 236.348,130.750 236.810 C 131.117 237.272,131.478 237.654,131.552 237.658 C 131.718 237.668,129.828 235.336,129.394 234.994 C 129.102 234.765,129.098 234.770,129.328 235.083 M132.022 238.292 C 132.228 238.590,132.457 238.833,132.531 238.833 C 132.606 238.833,132.667 238.914,132.667 239.012 C 132.667 239.226,133.152 239.737,133.256 239.633 C 133.297 239.592,132.951 239.152,132.489 238.655 C 132.026 238.157,131.816 237.994,132.022 238.292 M265.367 240.606 C 264.973 241.098,264.685 241.500,264.727 241.500 C 264.846 241.500,266.216 239.826,266.146 239.766 C 266.112 239.736,265.761 240.114,265.367 240.606 M133.579 240.180 C 133.761 240.402,133.989 240.658,134.086 240.750 C 134.184 240.842,134.769 241.554,135.387 242.333 C 136.004 243.112,136.681 243.938,136.891 244.167 C 137.100 244.396,137.605 244.991,138.011 245.489 C 138.417 245.988,138.862 246.515,139.000 246.661 C 139.137 246.806,139.438 247.152,139.669 247.428 C 139.899 247.705,140.199 247.999,140.335 248.082 C 140.472 248.164,140.130 247.711,139.575 247.074 C 139.020 246.438,137.468 244.592,136.125 242.973 C 134.782 241.355,133.586 239.973,133.467 239.903 C 133.348 239.833,133.398 239.958,133.579 240.180 M264.014 242.230 L 263.612 242.750 264.089 242.297 C 264.351 242.047,264.532 241.814,264.491 241.777 C 264.450 241.740,264.236 241.944,264.014 242.230 M140.504 248.385 C 140.502 248.459,140.814 248.854,141.197 249.263 C 141.581 249.673,142.049 250.229,142.239 250.501 C 142.428 250.772,142.647 250.996,142.724 250.997 C 142.850 251.000,142.593 250.677,140.963 248.778 C 140.713 248.488,140.507 248.311,140.504 248.385 M257.167 250.416 C 256.952 250.645,256.808 250.860,256.847 250.894 C 256.885 250.928,257.091 250.741,257.304 250.478 C 257.782 249.890,257.697 249.852,257.167 250.416 M142.984 251.417 C 143.076 251.600,143.492 252.115,143.909 252.561 C 144.326 253.008,144.667 253.421,144.667 253.480 C 144.667 253.538,144.832 253.690,145.035 253.817 C 145.267 253.961,145.149 253.744,144.717 253.232 C 143.545 251.839,142.810 251.069,142.984 251.417 M255.514 252.397 L 255.112 252.917 255.589 252.463 C 255.851 252.214,256.032 251.980,255.991 251.944 C 255.950 251.907,255.736 252.111,255.514 252.397 M254.653 253.458 C 253.670 254.560,253.447 254.833,253.534 254.833 C 253.585 254.833,253.979 254.421,254.409 253.917 C 255.207 252.983,255.398 252.624,254.653 253.458 M145.774 254.717 C 146.036 255.020,146.435 255.515,146.661 255.816 C 146.887 256.117,147.225 256.535,147.411 256.744 C 147.598 256.954,147.935 257.358,148.162 257.643 C 148.388 257.927,148.688 258.203,148.828 258.256 C 148.969 258.309,148.816 258.067,148.490 257.718 C 148.163 257.369,147.353 256.427,146.690 255.625 C 146.026 254.823,145.442 254.167,145.391 254.167 C 145.340 254.167,145.513 254.415,145.774 254.717 M149.781 259.537 C 150.222 260.108,150.872 260.877,151.226 261.246 C 151.579 261.615,152.041 262.186,152.253 262.516 C 152.465 262.846,153.001 263.496,153.444 263.961 C 154.355 264.916,154.833 265.511,154.833 265.689 C 154.833 265.756,155.077 265.984,155.375 266.195 C 155.965 266.614,155.586 266.115,153.583 263.837 C 153.125 263.316,151.936 261.902,150.942 260.695 C 149.056 258.406,148.395 257.747,149.781 259.537 M249.667 259.416 C 249.452 259.645,249.308 259.860,249.347 259.894 C 249.385 259.928,249.591 259.741,249.804 259.478 C 250.282 258.890,250.197 258.852,249.667 259.416 M246.917 262.667 C 246.642 263.014,246.091 263.681,245.693 264.149 C 245.295 264.617,245.005 265.000,245.050 265.000 C 245.178 265.000,247.552 262.163,247.481 262.096 C 247.446 262.063,247.192 262.319,246.917 262.667 M156.121 267.122 C 156.284 267.373,156.529 267.697,156.667 267.843 C 157.365 268.583,158.135 269.486,158.576 270.083 C 158.848 270.450,159.129 270.775,159.203 270.806 C 159.276 270.837,159.685 271.324,160.111 271.889 C 160.538 272.454,161.023 273.067,161.190 273.250 C 161.357 273.433,161.664 273.782,161.872 274.025 C 162.080 274.268,162.564 274.830,162.949 275.275 C 164.326 276.869,164.500 277.085,164.500 277.208 C 164.500 277.277,164.580 277.333,164.679 277.333 C 164.890 277.333,164.989 277.457,160.750 272.411 C 158.917 270.228,157.097 268.043,156.706 267.555 C 155.944 266.603,155.637 266.376,156.121 267.122 M239.482 271.625 C 238.810 272.427,238.382 272.987,238.530 272.869 C 238.854 272.611,240.889 270.167,240.779 270.167 C 240.737 270.167,240.153 270.823,239.482 271.625 M237.834 273.583 C 237.619 273.811,237.475 274.027,237.513 274.061 C 237.552 274.095,237.758 273.908,237.971 273.645 C 238.448 273.056,238.364 273.018,237.834 273.583 M236.494 275.173 C 236.108 275.635,235.819 276.038,235.854 276.068 C 235.888 276.098,236.239 275.720,236.633 275.228 C 237.539 274.096,237.432 274.053,236.494 275.173 M234.828 277.173 C 234.441 277.635,234.153 278.038,234.187 278.068 C 234.222 278.098,234.572 277.720,234.966 277.228 C 235.873 276.096,235.765 276.053,234.828 277.173 M164.833 277.528 C 164.833 277.711,165.814 278.741,165.904 278.652 C 165.954 278.602,165.734 278.307,165.414 277.998 C 165.095 277.688,164.833 277.477,164.833 277.528 M233.159 279.208 C 232.780 279.690,232.157 280.505,231.776 281.020 C 231.214 281.781,228.215 285.407,226.557 287.333 C 224.781 289.394,223.541 290.929,223.601 290.990 C 223.641 291.030,223.787 290.903,223.924 290.706 C 224.062 290.510,224.268 290.252,224.383 290.133 C 224.499 290.014,225.127 289.279,225.780 288.500 C 226.434 287.721,227.182 286.832,227.442 286.526 C 227.895 285.993,228.337 285.462,229.691 283.820 C 230.026 283.415,230.534 282.821,230.822 282.500 C 231.109 282.179,231.470 281.710,231.625 281.458 C 231.779 281.206,231.957 281.000,232.020 281.000 C 232.083 281.000,232.323 280.681,232.553 280.292 C 232.784 279.902,233.109 279.432,233.278 279.248 C 233.786 278.690,234.046 278.333,233.945 278.333 C 233.892 278.333,233.539 278.727,233.159 279.208 M166.422 279.458 C 166.675 279.802,166.972 280.158,167.080 280.250 C 167.188 280.342,167.785 281.053,168.406 281.830 C 169.028 282.608,169.678 283.343,169.852 283.465 C 170.025 283.586,170.167 283.794,170.167 283.926 C 170.167 284.058,170.223 284.167,170.292 284.167 C 170.360 284.167,171.092 284.989,171.917 285.995 C 172.742 287.000,173.479 287.825,173.556 287.828 C 173.632 287.831,173.287 287.365,172.789 286.792 C 172.291 286.219,171.516 285.295,171.067 284.738 C 169.614 282.938,166.119 278.833,166.039 278.833 C 165.996 278.833,166.168 279.115,166.422 279.458 M174.333 288.753 C 174.333 288.943,175.907 290.814,176.074 290.824 C 176.161 290.829,176.006 290.590,175.729 290.292 C 175.453 289.994,175.026 289.500,174.780 289.196 C 174.534 288.891,174.333 288.692,174.333 288.753 M176.332 291.303 C 176.437 291.515,176.837 292.007,177.220 292.397 C 177.603 292.786,178.179 293.454,178.500 293.881 C 178.821 294.307,179.144 294.659,179.219 294.662 C 179.294 294.664,178.901 294.123,178.347 293.458 C 176.791 291.592,176.118 290.871,176.332 291.303 M222.499 292.198 C 221.239 293.617,220.949 294.000,221.135 294.000 C 221.223 294.000,221.411 293.831,221.552 293.625 C 221.693 293.419,222.043 292.987,222.330 292.667 C 222.899 292.030,223.555 291.167,223.469 291.167 C 223.439 291.167,223.003 291.631,222.499 292.198 M220.394 294.708 C 220.116 295.006,219.407 295.838,218.819 296.557 C 218.231 297.275,217.412 298.263,217.000 298.752 C 216.588 299.240,215.580 300.452,214.760 301.445 C 213.941 302.438,212.643 303.981,211.876 304.875 C 211.109 305.769,210.529 306.500,210.586 306.500 C 210.719 306.500,210.900 306.308,211.919 305.085 C 212.376 304.536,212.960 303.861,213.216 303.585 C 213.473 303.309,213.808 302.877,213.961 302.625 C 214.113 302.373,214.284 302.167,214.340 302.167 C 214.396 302.167,214.768 301.717,215.167 301.167 C 215.565 300.617,215.943 300.167,216.006 300.167 C 216.069 300.167,216.553 299.601,217.083 298.911 C 217.612 298.220,218.185 297.580,218.356 297.488 C 218.527 297.397,218.667 297.215,218.667 297.086 C 218.667 296.956,218.762 296.790,218.878 296.717 C 218.994 296.643,219.200 296.421,219.336 296.222 C 219.472 296.023,219.909 295.479,220.307 295.013 C 221.117 294.067,221.171 293.875,220.394 294.708 M179.785 295.417 C 180.041 295.737,180.321 296.000,180.408 296.000 C 180.494 296.000,180.311 295.737,180.000 295.417 C 179.278 294.672,179.190 294.672,179.785 295.417 M181.162 297.093 C 181.296 297.271,181.737 297.792,182.142 298.250 C 182.546 298.708,183.043 299.271,183.245 299.500 C 183.447 299.729,183.702 300.084,183.810 300.288 C 183.919 300.492,184.169 300.745,184.366 300.851 C 184.712 301.036,181.488 297.112,181.106 296.883 C 181.002 296.820,181.027 296.915,181.162 297.093 M185.459 302.197 C 185.894 302.764,186.568 303.570,186.957 303.989 C 187.345 304.408,187.707 304.881,187.759 305.042 C 187.812 305.202,187.913 305.333,187.984 305.333 C 188.054 305.333,188.653 306.002,189.314 306.820 C 189.975 307.638,191.198 309.007,192.033 309.862 L 193.550 311.417 192.317 310.031 C 190.950 308.496,190.630 308.121,187.194 304.019 C 184.743 301.092,184.058 300.374,185.459 302.197 M209.270 307.958 C 208.669 308.669,207.826 309.662,207.398 310.167 C 206.831 310.833,206.981 310.719,207.944 309.750 C 208.674 309.017,209.251 308.374,209.227 308.322 C 209.204 308.270,209.331 308.122,209.509 307.994 C 209.687 307.865,209.833 307.664,209.833 307.547 C 209.833 307.429,209.890 307.333,209.960 307.333 C 210.030 307.333,210.180 307.183,210.295 307.000 C 210.696 306.358,210.354 306.678,209.270 307.958 M206.067 311.358 C 205.752 311.713,205.752 311.714,206.125 311.518 C 206.331 311.410,206.500 311.249,206.500 311.161 C 206.500 310.924,206.420 310.960,206.067 311.358 M193.669 311.456 C 193.671 311.616,194.840 312.382,194.936 312.286 C 194.975 312.247,194.705 312.016,194.337 311.772 C 193.968 311.528,193.668 311.386,193.669 311.456 M205.405 311.828 C 205.320 311.914,204.837 312.211,204.333 312.489 C 203.829 312.767,203.507 312.995,203.618 312.997 C 203.975 313.002,205.781 311.892,205.642 311.753 C 205.597 311.708,205.491 311.742,205.405 311.828 M195.500 312.652 C 195.729 312.839,195.992 312.993,196.083 312.994 C 196.262 312.995,195.960 312.764,195.417 312.483 C 195.195 312.369,195.223 312.425,195.500 312.652 M196.914 313.325 C 197.278 313.498,197.644 313.597,197.726 313.547 C 197.808 313.496,197.584 313.353,197.229 313.230 C 196.304 312.908,196.138 312.958,196.914 313.325 M202.500 313.275 L 201.917 313.511 202.495 313.419 C 202.813 313.368,203.147 313.253,203.236 313.164 C 203.452 312.948,203.226 312.982,202.500 313.275 M198.208 313.615 C 198.369 313.657,198.631 313.657,198.792 313.615 C 198.952 313.573,198.821 313.539,198.500 313.539 C 198.179 313.539,198.048 313.573,198.208 313.615 M99.958 330.125 C 154.981 330.148,245.019 330.148,300.042 330.125 C 355.065 330.102,310.046 330.083,200.000 330.083 C 89.954 330.083,44.935 330.102,99.958 330.125 " stroke="none" fill="#0000ff" fill-rule="evenodd"></path><path id="path3" d="M203.750 28.833 L 202.917 28.948 203.958 28.974 C 204.559 28.989,205.000 28.929,205.000 28.833 C 205.000 28.742,204.906 28.678,204.792 28.693 C 204.677 28.707,204.208 28.770,203.750 28.833 M193.958 28.951 C 194.165 28.991,194.502 28.991,194.708 28.951 C 194.915 28.911,194.746 28.879,194.333 28.879 C 193.921 28.879,193.752 28.911,193.958 28.951 M190.960 29.118 C 191.168 29.158,191.468 29.156,191.627 29.115 C 191.786 29.073,191.617 29.040,191.250 29.042 C 190.883 29.044,190.753 29.078,190.960 29.118 M208.042 29.115 C 208.202 29.157,208.465 29.157,208.625 29.115 C 208.785 29.073,208.654 29.039,208.333 29.039 C 208.012 29.039,207.881 29.073,208.042 29.115 M212.500 29.341 C 212.317 29.464,212.385 29.480,212.750 29.398 C 213.363 29.261,213.496 29.166,213.069 29.169 C 212.894 29.171,212.637 29.248,212.500 29.341 M194.917 43.179 C 172.392 44.091,151.544 51.710,135.239 64.989 C 131.853 67.747,130.690 68.799,127.404 72.078 C 116.625 82.836,107.900 96.673,103.754 109.583 C 99.965 121.384,98.757 128.013,98.313 139.452 C 97.425 162.306,102.204 181.235,113.495 199.583 C 115.656 203.095,117.632 205.710,122.739 211.812 C 124.762 214.230,126.642 216.490,126.917 216.834 C 127.192 217.178,129.104 219.469,131.167 221.924 C 133.229 224.379,135.290 226.844,135.746 227.402 C 136.202 227.960,137.018 228.942,137.558 229.583 C 138.735 230.980,145.620 239.194,146.625 240.400 C 147.014 240.868,147.652 241.633,148.041 242.100 C 148.734 242.932,154.741 250.104,157.519 253.417 C 158.288 254.333,159.104 255.317,159.333 255.602 C 159.563 255.887,161.783 258.549,164.269 261.518 C 173.343 272.359,177.598 277.448,178.250 278.242 C 178.617 278.688,179.254 279.442,179.667 279.917 C 180.079 280.393,180.843 281.299,181.363 281.932 C 182.522 283.342,185.088 286.415,188.506 290.487 C 189.924 292.176,191.465 294.015,191.931 294.574 C 193.251 296.158,194.601 297.266,196.156 298.039 L 197.583 298.750 199.667 298.744 C 203.573 298.733,204.700 297.918,210.583 290.843 C 212.142 288.969,213.717 287.087,214.083 286.660 C 214.883 285.729,218.180 281.776,219.000 280.765 C 219.321 280.370,220.896 278.489,222.500 276.585 C 224.104 274.682,225.642 272.844,225.917 272.500 C 226.192 272.157,226.979 271.219,227.667 270.417 C 228.354 269.614,229.142 268.675,229.417 268.329 C 229.692 267.983,232.167 265.021,234.917 261.746 C 237.667 258.472,240.142 255.509,240.417 255.163 C 240.692 254.817,242.604 252.527,244.667 250.074 C 248.215 245.854,250.006 243.710,251.333 242.092 C 251.654 241.701,253.604 239.374,255.667 236.921 C 257.729 234.468,259.642 232.179,259.917 231.835 C 260.192 231.491,262.667 228.526,265.417 225.247 C 268.167 221.968,270.735 218.903,271.125 218.435 C 272.291 217.033,273.144 216.013,275.333 213.401 C 276.478 212.035,277.693 210.579,278.032 210.167 C 278.372 209.754,279.144 208.817,279.748 208.083 C 290.430 195.122,298.043 177.062,300.322 159.271 C 301.480 150.239,301.407 136.837,300.154 128.250 C 297.392 109.318,290.079 93.140,277.326 77.750 C 264.871 62.720,245.230 50.733,225.333 46.016 C 217.369 44.128,205.844 42.824,198.917 43.027 C 198.458 43.040,196.658 43.109,194.917 43.179 M275.833 56.719 C 275.833 56.748,276.077 56.991,276.375 57.260 L 276.917 57.750 276.427 57.208 C 275.971 56.703,275.833 56.590,275.833 56.719 M203.989 58.994 C 204.774 59.082,206.429 59.236,207.665 59.337 C 258.218 63.448,294.664 112.630,284.483 163.000 C 281.162 179.430,275.997 189.390,262.298 205.785 C 252.609 217.381,238.224 234.587,230.555 243.755 C 227.179 247.791,218.759 257.860,211.844 266.130 C 204.930 274.400,199.192 281.161,199.094 281.153 C 198.997 281.146,197.480 279.403,195.725 277.278 C 193.969 275.154,187.390 267.268,181.105 259.752 C 169.037 245.322,169.013 245.290,166.606 240.667 C 159.219 226.480,158.241 213.651,163.278 197.000 C 169.526 176.340,185.999 157.518,208.564 145.253 C 210.456 144.225,210.372 144.377,207.833 146.581 C 189.736 162.292,174.612 183.806,169.331 201.350 C 166.912 209.385,166.072 220.398,167.443 226.113 C 167.577 226.672,167.780 226.683,171.296 226.325 C 199.033 223.503,220.748 211.209,234.631 190.465 C 241.519 180.174,245.752 168.658,246.656 157.750 C 246.754 156.558,246.929 154.758,247.043 153.750 C 248.263 142.963,246.334 124.457,242.752 112.583 C 231.841 76.414,200.250 57.605,165.227 66.426 C 162.550 67.100,162.524 67.102,163.500 66.594 C 169.406 63.516,181.626 60.224,190.135 59.418 C 191.573 59.282,193.387 59.105,194.167 59.025 C 196.153 58.821,202.278 58.802,203.989 58.994 M279.000 59.719 C 279.000 59.748,279.244 59.991,279.542 60.260 L 280.083 60.750 279.594 60.208 C 279.138 59.703,279.000 59.590,279.000 59.719 M118.906 61.375 L 118.417 61.917 118.958 61.427 C 119.256 61.158,119.500 60.914,119.500 60.885 C 119.500 60.757,119.362 60.870,118.906 61.375 M281.667 62.385 C 281.667 62.414,281.910 62.658,282.208 62.927 L 282.750 63.417 282.260 62.875 C 281.804 62.370,281.667 62.257,281.667 62.385 M184.997 72.507 C 203.802 73.493,218.870 82.587,228.480 98.750 C 231.036 103.048,231.127 103.323,230.000 103.331 C 229.771 103.333,228.253 103.559,226.627 103.835 C 181.111 111.548,153.892 135.203,149.438 170.917 C 148.832 175.774,148.754 177.185,148.765 183.083 C 148.779 190.556,149.179 195.141,150.510 203.083 C 150.945 205.681,151.968 210.753,152.208 211.500 C 152.324 211.862,152.406 213.793,152.424 216.583 C 152.452 220.886,152.703 223.678,153.260 225.897 C 153.449 226.650,153.188 226.417,151.227 224.083 C 125.839 193.861,125.683 193.654,121.001 184.083 C 110.918 163.473,109.280 136.930,116.922 117.987 C 128.700 88.791,150.794 72.956,180.583 72.360 C 181.225 72.347,183.211 72.413,184.997 72.507 M312.539 131.167 C 312.539 131.487,312.573 131.619,312.615 131.458 C 312.657 131.298,312.657 131.035,312.615 130.875 C 312.573 130.715,312.539 130.846,312.539 131.167 M87.042 133.750 C 87.044 134.117,87.078 134.247,87.118 134.040 C 87.158 133.832,87.156 133.532,87.115 133.373 C 87.073 133.214,87.040 133.383,87.042 133.750 M312.709 134.083 C 312.711 134.450,312.745 134.580,312.785 134.373 C 312.824 134.166,312.823 133.866,312.781 133.706 C 312.739 133.547,312.707 133.717,312.709 134.083 M86.947 148.833 C 87.002 149.246,87.073 149.615,87.107 149.653 C 87.232 149.798,87.137 148.735,86.996 148.417 C 86.897 148.194,86.881 148.333,86.947 148.833 M312.709 149.250 C 312.711 149.617,312.745 149.747,312.785 149.540 C 312.824 149.332,312.823 149.032,312.781 148.873 C 312.739 148.714,312.707 148.883,312.709 149.250 M312.539 152.000 C 312.539 152.321,312.573 152.452,312.615 152.292 C 312.657 152.131,312.657 151.869,312.615 151.708 C 312.573 151.548,312.539 151.679,312.539 152.000 M0.000 365.083 L 0.000 400.000 200.000 400.000 L 400.000 400.000 400.000 365.083 L 400.000 330.167 200.000 330.167 L 0.000 330.167 0.000 365.083 M297.047 343.227 C 298.192 343.712,298.688 345.163,298.099 346.303 C 297.389 347.675,295.078 347.690,294.273 346.327 C 293.219 344.543,295.125 342.413,297.047 343.227 M65.500 344.166 C 67.925 344.793,70.763 346.299,72.542 347.904 C 73.140 348.444,73.277 348.169,70.986 351.017 L 68.972 353.520 68.528 353.228 C 65.523 351.256,64.166 350.774,61.583 350.763 C 58.300 350.749,56.506 352.169,56.933 354.444 C 57.200 355.868,58.177 356.501,63.324 358.585 C 68.962 360.869,70.121 361.485,71.531 362.946 C 75.044 366.587,74.957 373.029,71.343 376.896 C 66.133 382.471,54.979 382.342,48.125 376.629 C 47.112 375.784,46.994 376.088,49.516 373.048 C 52.101 369.931,51.699 370.164,52.919 371.084 C 58.595 375.361,66.542 374.688,65.750 369.997 C 65.493 368.479,64.642 367.919,58.917 365.507 C 51.948 362.570,50.018 360.896,48.996 356.901 C 46.848 348.504,55.741 341.643,65.500 344.166 M212.500 362.167 L 212.500 380.333 211.250 380.333 L 210.000 380.333 210.000 362.167 L 210.000 344.000 211.250 344.000 L 212.500 344.000 212.500 362.167 M190.333 349.333 L 190.333 353.000 193.583 353.000 L 196.833 353.000 196.833 356.167 L 196.833 359.333 193.576 359.333 L 190.319 359.333 190.368 365.792 L 190.417 372.250 190.833 372.994 C 191.745 374.620,193.441 375.026,196.083 374.249 C 196.430 374.147,197.827 379.733,197.530 380.035 C 197.206 380.364,194.408 380.862,192.417 380.944 C 187.046 381.165,184.043 379.251,182.623 374.700 C 182.298 373.657,182.270 373.113,182.208 366.458 L 182.142 359.333 180.237 359.333 L 178.333 359.333 178.333 356.333 C 178.333 354.683,178.352 353.325,178.375 353.315 C 178.398 353.306,179.354 353.212,180.500 353.107 L 182.583 352.917 183.029 349.500 C 183.273 347.621,183.480 345.990,183.487 345.875 C 183.497 345.716,184.301 345.667,186.917 345.667 L 190.333 345.667 190.333 349.333 M94.590 352.587 C 105.661 355.413,105.568 376.516,94.468 380.459 C 91.310 381.581,88.164 380.973,85.349 378.696 L 84.616 378.102 84.730 378.593 C 84.793 378.863,84.890 381.652,84.946 384.792 L 85.046 390.500 80.940 390.500 L 76.833 390.500 76.833 371.750 L 76.833 353.000 80.155 353.000 C 83.176 353.000,83.485 353.026,83.563 353.292 C 83.609 353.452,83.737 354.052,83.846 354.625 C 84.082 355.872,83.937 355.852,85.299 354.820 C 88.169 352.646,91.595 351.822,94.590 352.587 M123.274 352.523 C 124.274 352.775,124.264 352.622,123.541 356.422 L 122.907 359.750 122.412 359.667 C 118.619 359.028,116.085 360.181,114.453 363.286 L 113.833 364.465 113.833 372.399 L 113.833 380.333 109.833 380.333 L 105.833 380.333 105.833 366.663 L 105.833 352.993 109.125 353.038 L 112.417 353.083 112.669 355.363 C 112.962 358.019,112.992 358.078,113.546 357.133 C 115.721 353.428,119.588 351.595,123.274 352.523 M140.083 352.832 C 153.364 357.073,152.528 377.949,138.965 380.736 C 127.487 383.095,119.059 370.689,124.539 359.500 C 127.270 353.922,134.195 350.952,140.083 352.832 M160.333 361.825 C 160.333 371.039,160.388 371.870,161.055 372.860 C 162.338 374.764,165.407 374.505,167.516 372.317 L 168.500 371.295 168.500 362.148 L 168.500 353.000 172.583 353.000 L 176.667 353.000 176.667 366.667 L 176.667 380.333 173.353 380.333 L 170.040 380.333 169.741 378.426 L 169.441 376.518 167.973 377.915 C 163.178 382.479,155.988 381.995,153.500 376.943 C 152.268 374.440,152.280 374.571,152.211 363.208 L 152.148 353.000 156.241 353.000 L 160.333 353.000 160.333 361.825 M233.761 353.347 C 236.053 353.766,237.715 355.030,238.693 357.098 C 239.699 359.226,239.719 359.469,239.789 370.375 L 239.852 380.333 238.593 380.333 L 237.333 380.333 237.332 371.042 C 237.331 359.484,237.225 358.704,235.427 356.906 C 232.775 354.253,228.647 354.926,224.334 358.714 L 222.667 360.179 222.667 370.256 L 222.667 380.333 221.417 380.333 L 220.167 380.333 220.167 367.083 L 220.167 353.833 221.229 353.833 L 222.291 353.833 222.410 355.833 C 222.476 356.933,222.563 357.833,222.605 357.833 C 222.647 357.833,223.221 357.362,223.882 356.786 C 227.421 353.702,230.270 352.710,233.761 353.347 M281.250 353.729 C 286.650 355.466,289.602 360.264,289.569 367.250 C 289.530 375.810,284.535 381.336,277.183 380.953 C 269.284 380.542,264.370 372.606,266.273 363.333 C 267.812 355.832,274.485 351.553,281.250 353.729 M316.656 353.343 C 318.059 353.571,319.117 354.024,320.766 355.103 C 322.647 356.335,322.626 356.290,321.789 357.266 L 321.083 358.089 319.919 357.213 C 311.004 350.505,301.197 362.771,306.633 373.833 C 309.318 379.298,316.469 380.495,321.278 376.285 L 321.808 375.821 322.404 376.601 C 323.164 377.596,323.195 377.491,321.851 378.487 C 313.248 384.865,303.047 379.174,302.711 367.810 C 302.430 358.292,308.479 352.017,316.656 353.343 M337.579 353.419 C 342.014 354.358,344.657 357.682,345.327 363.162 C 345.523 364.763,345.549 366.213,345.396 366.979 L 345.292 367.500 335.741 367.500 L 326.191 367.500 326.278 368.458 C 327.100 377.492,335.662 381.936,342.692 376.979 C 342.936 376.807,343.198 376.668,343.276 376.669 C 343.397 376.671,344.333 378.207,344.333 378.405 C 344.333 378.444,343.788 378.777,343.122 379.145 C 335.850 383.159,327.471 380.445,324.787 373.205 C 320.853 362.593,328.084 351.407,337.579 353.419 M359.528 353.640 C 360.798 354.015,362.071 354.617,363.191 355.373 L 363.965 355.894 363.306 356.766 L 362.648 357.639 361.616 356.953 C 356.914 353.828,350.771 355.327,350.375 359.695 C 350.137 362.322,351.441 363.469,357.167 365.667 C 363.694 368.172,365.315 369.849,365.138 373.909 C 364.824 381.088,354.777 383.458,347.458 378.079 C 346.509 377.381,346.514 377.418,347.272 376.444 C 348.006 375.502,347.874 375.504,349.087 376.415 C 354.866 380.754,362.671 379.222,362.661 373.750 C 362.656 370.925,361.199 369.668,355.417 367.502 C 349.954 365.455,348.050 363.694,347.871 360.523 C 347.574 355.284,353.415 351.835,359.528 353.640 M248.284 362.708 C 250.026 367.590,251.968 373.064,252.600 374.875 C 253.233 376.685,253.789 378.166,253.837 378.166 C 253.885 378.167,255.792 372.935,258.074 366.542 C 260.357 360.148,262.325 354.673,262.448 354.375 C 262.669 353.839,265.000 353.482,265.000 353.984 C 265.000 354.119,263.071 359.363,257.182 375.233 C 256.165 377.974,255.333 380.243,255.333 380.275 C 255.333 380.307,254.670 380.333,253.859 380.333 L 252.386 380.333 247.500 367.292 C 244.813 360.119,242.581 354.156,242.539 354.042 C 242.483 353.886,242.801 353.833,243.791 353.833 L 245.117 353.833 248.284 362.708 M297.333 367.083 L 297.333 380.333 296.083 380.333 L 294.833 380.333 294.833 367.083 L 294.833 353.833 296.083 353.833 L 297.333 353.833 297.333 367.083 M275.685 355.597 C 269.379 357.293,266.425 366.502,269.891 373.667 C 273.581 381.297,283.775 380.254,286.411 371.977 C 289.354 362.735,283.333 353.540,275.685 355.597 M332.998 355.636 C 329.540 356.777,327.012 360.168,326.360 364.542 L 326.217 365.500 334.715 365.500 L 343.213 365.500 343.098 364.208 C 342.583 358.421,340.117 355.486,335.679 355.377 C 334.333 355.344,333.700 355.405,332.998 355.636 M134.890 359.072 C 130.333 360.498,129.849 371.766,134.250 373.980 C 137.564 375.648,140.578 373.265,141.182 368.500 C 141.984 362.179,139.043 357.774,134.890 359.072 M87.981 359.230 C 87.249 359.491,86.459 360.021,85.625 360.810 L 85.000 361.401 85.000 367.033 L 85.000 372.665 85.684 373.160 C 90.317 376.516,94.401 373.274,94.390 366.250 C 94.381 360.579,91.878 357.837,87.981 359.230 " stroke="none" fill="#6aa6e1" fill-rule="evenodd"></path><path id="path4" d="" stroke="none" fill="#00ffff" fill-rule="evenodd"></path></g></svg>